<?xml version="1.0" encoding="UTF-8" standalone="no"?>
<!-- Created with Inkscape (http://www.inkscape.org/) -->

<svg
   width="341.21152"
   height="341.21152"
   id="svg3447"
   version="1.1"
   inkscape:version="1.1.1 (3bf5ae0d25, 2021-09-20)"
   sodipodi:docname="icon.svg"
   inkscape:export-filename="/home/baldo/projects/ffhh/ffffng/frontend/public/apple-touch-icon.png"
   inkscape:export-xdpi="50.643074"
   inkscape:export-ydpi="50.643074"
   xmlns:inkscape="http://www.inkscape.org/namespaces/inkscape"
   xmlns:sodipodi="http://sodipodi.sourceforge.net/DTD/sodipodi-0.dtd"
   xmlns="http://www.w3.org/2000/svg"
   xmlns:svg="http://www.w3.org/2000/svg"
   xmlns:rdf="http://www.w3.org/1999/02/22-rdf-syntax-ns#"
   xmlns:cc="http://creativecommons.org/ns#"
   xmlns:dc="http://purl.org/dc/elements/1.1/">
  <defs
     id="defs3449">
    <clipPath
       clipPathUnits="userSpaceOnUse"
       id="clipPath4434">
      <rect
         transform="rotate(45)"
         ry="1.8153608"
         rx="1.2299931"
         y="8491.9297"
         x="1914.3979"
         height="261.76361"
         width="261.76361"
         id="rect4436"
         style="opacity:0.576613;fill:#ff0000;stroke:none" />
    </clipPath>
    <clipPath
       clipPathUnits="userSpaceOnUse"
       id="clipPath4590">
      <path
         sodipodi:nodetypes="cccccccc"
         inkscape:connector-curvature="0"
         id="path4592"
         d="m -4623.8797,7360.2562 -32.3968,-15.9515 21.309,-23.1111 z m -53.9986,-39.0626 21.3091,23.1067 -32.3947,15.9559 z"
         style="fill:#ff0000;fill-opacity:1;fill-rule:evenodd;stroke:none" />
    </clipPath>
    <clipPath
       clipPathUnits="userSpaceOnUse"
       id="clipPath4594">
      <path
         sodipodi:nodetypes="cccccccc"
         inkscape:connector-curvature="0"
         id="path4596"
         d="m -4611.873,7366.1514 -44.3484,-21.8363 29.1702,-31.6371 z m -73.9194,-53.4734 29.1702,31.6312 -44.3455,21.8422 z"
         style="fill:#ff0000;fill-opacity:1;fill-rule:evenodd;stroke:none" />
    </clipPath>
    <clipPath
       clipPathUnits="userSpaceOnUse"
       id="clipPath4598">
      <path
         sodipodi:nodetypes="cccccccc"
         inkscape:connector-curvature="0"
         id="path4600"
         d="m -4588.8535,7377.4531 -67.2619,-33.1184 44.2416,-47.9831 z m -112.1113,-81.1015 44.2416,47.9741 -67.2575,33.1274 z"
         style="fill:#ff0000;fill-opacity:1;fill-rule:evenodd;stroke:none" />
    </clipPath>
    <clipPath
       clipPathUnits="userSpaceOnUse"
       id="clipPath4434-6">
      <rect
         transform="rotate(45)"
         ry="1.8153608"
         rx="1.2299931"
         y="8491.9297"
         x="1914.3979"
         height="261.76361"
         width="261.76361"
         id="rect4436-4"
         style="opacity:0.576613;fill:#ff0000;stroke:none" />
    </clipPath>
    <clipPath
       clipPathUnits="userSpaceOnUse"
       id="clipPath4590-9">
      <path
         sodipodi:nodetypes="cccccccc"
         inkscape:connector-curvature="0"
         id="path4592-5"
         d="m -4623.8797,7360.2562 -32.3968,-15.9515 21.309,-23.1111 z m -53.9986,-39.0626 21.3091,23.1067 -32.3947,15.9559 z"
         style="fill:#ff0000;fill-opacity:1;fill-rule:evenodd;stroke:none" />
    </clipPath>
    <clipPath
       clipPathUnits="userSpaceOnUse"
       id="clipPath4594-4">
      <path
         sodipodi:nodetypes="cccccccc"
         inkscape:connector-curvature="0"
         id="path4596-2"
         d="m -4611.873,7366.1514 -44.3484,-21.8363 29.1702,-31.6371 z m -73.9194,-53.4734 29.1702,31.6312 -44.3455,21.8422 z"
         style="fill:#ff0000;fill-opacity:1;fill-rule:evenodd;stroke:none" />
    </clipPath>
    <clipPath
       clipPathUnits="userSpaceOnUse"
       id="clipPath4598-4">
      <path
         sodipodi:nodetypes="cccccccc"
         inkscape:connector-curvature="0"
         id="path4600-8"
         d="m -4588.8535,7377.4531 -67.2619,-33.1184 44.2416,-47.9831 z m -112.1113,-81.1015 44.2416,47.9741 -67.2575,33.1274 z"
         style="fill:#ff0000;fill-opacity:1;fill-rule:evenodd;stroke:none" />
    </clipPath>
  </defs>
  <sodipodi:namedview
     id="base"
     pagecolor="#ffffff"
     bordercolor="#666666"
     borderopacity="1.0"
     inkscape:pageopacity="0"
     inkscape:pageshadow="2"
     inkscape:zoom="1.8529412"
     inkscape:cx="267.95238"
     inkscape:cy="168.65079"
     inkscape:document-units="px"
     inkscape:current-layer="g3580"
     showgrid="false"
     fit-margin-top="0"
     fit-margin-left="0"
     fit-margin-right="0"
     fit-margin-bottom="0"
     inkscape:window-width="2558"
     inkscape:window-height="1408"
     inkscape:window-x="2560"
     inkscape:window-y="30"
     inkscape:window-maximized="1"
     inkscape:pagecheckerboard="true" />
  <metadata
     id="metadata3452">
    <rdf:RDF>
      <cc:Work
         rdf:about="">
        <dc:format>image/svg+xml</dc:format>
        <dc:type
           rdf:resource="http://purl.org/dc/dcmitype/StillImage" />
      </cc:Work>
    </rdf:RDF>
  </metadata>
  <g
     inkscape:label="Ebene 1"
     inkscape:groupmode="layer"
     id="layer1"
     transform="translate(-60.513146,-24.984767)">
    <g
       id="g3580"
       transform="translate(2.688147,-2.688134)">
      <g
         id="path4355">
        <path
           style="color:#000000;fill:#333333;stroke-width:22.2988;stroke-linecap:square;stroke-linejoin:round;-inkscape-stroke:none"
           d="m 57.824999,198.27868 c 0,94.22296 76.382801,170.60575 170.605761,170.60575 50.69154,0 96.21945,-22.10819 127.46763,-57.20847 26.8344,-30.1424 43.13814,-69.86587 43.13814,-113.39728 0,-94.22297 -76.3828,-170.605779 -170.60577,-170.605779 -94.22296,0 -170.605761,76.382809 -170.605761,170.605779 z"
           id="path1157" />
        <path
           style="color:#000000;fill:#e5287a;stroke-linecap:square;stroke-linejoin:round;-inkscape-stroke:none"
           d="m 228.43164,30.966797 c -92.28211,0 -167.312499,75.030383 -167.312499,167.312503 0,92.28211 75.030389,167.31054 167.312499,167.31054 49.64738,0 94.37002,-21.69128 125.00391,-56.10156 26.30688,-29.54986 42.30664,-68.57425 42.30664,-111.20898 0,-92.28212 -75.02843,-167.312503 -167.31055,-167.312503 z m 0,20.527344 c 81.18863,0 146.7832,65.596529 146.7832,146.785159 0,37.50949 -14.0143,71.61624 -37.11132,97.56054 -26.89608,30.21168 -65.99275,49.22461 -109.67188,49.22461 -81.18862,0 -146.785156,-65.59654 -146.785156,-146.78515 0,-81.18863 65.596546,-146.785159 146.785156,-146.785159 z"
           id="path1154" />
      </g>
      <path
         style="display:inline;fill:none;stroke:#ededed;stroke-width:9.63968;stroke-linecap:square;stroke-linejoin:round;stroke-miterlimit:4;stroke-dashoffset:0;stroke-opacity:1"
         d="m 96.1688,198.27867 c 0,73.04626 59.21569,132.26196 132.26196,132.26196 73.04627,0 132.26196,-59.2157 132.26196,-132.26196 0,-73.04627 -59.21569,-132.261977 -132.26196,-132.261977 -73.04627,0 -132.26196,59.215707 -132.26196,132.261977 z"
         id="path4357"
         inkscape:connector-curvature="0" />
      <path
         sodipodi:type="star"
         style="color:#000000;overflow:visible;fill:#fdbc41;stop-color:#000000"
         id="path1810"
         inkscape:flatsided="false"
         sodipodi:sides="8"
         sodipodi:cx="-173.53415"
         sodipodi:cy="-46.257851"
         sodipodi:r1="101.43466"
         sodipodi:r2="76.075996"
         sodipodi:arg1="0.78539816"
         sodipodi:arg2="1.1780972"
         inkscape:rounded="0.55"
         inkscape:randomized="0"
         d="m -101.80901,25.467286 c -16.58168,16.581684 -20.9471,-10.414024 -42.61211,-1.440082 -21.66502,8.973943 -5.66298,31.149606 -29.11303,31.149607 -23.45004,10e-7 -7.44801,-22.175662 -29.11302,-31.149604 -21.66502,-8.973944 -26.03043,18.021764 -42.61212,1.44008 -16.58168,-16.5816823 10.41403,-20.9470983 1.44009,-42.612111 -8.97395,-21.665016 -31.14961,-5.662982 -31.14961,-29.113026 0,-23.450041 22.17566,-7.448008 31.1496,-29.113021 8.97395,-21.665016 -18.02176,-26.030429 -1.44008,-42.612119 16.58169,-16.58168 20.9471,10.41403 42.61211,1.44008 21.66502,-8.97394 5.66299,-31.1496 29.11303,-31.1496 23.45004,0 7.44801,22.17566 29.11302,31.1496 21.66502,8.97395 26.03043,-18.02176 42.61212,-1.44008 16.581681,16.58168 -10.41403,20.9471 -1.44008,42.612113 8.973939,21.665015 31.149602,5.662982 31.149603,29.113026 10e-7,23.450041 -22.175663,7.448008 -31.149603,29.113021 -8.97395,21.6650153 18.021763,26.0304305 1.44008,42.612116 z"
         transform="matrix(0.81688462,0,0,0.81688462,370.18813,236.06599)" />
      <circle
         style="color:#000000;overflow:visible;fill:#333333;stroke-width:0.844574;stop-color:#000000"
         id="path953"
         cx="228.43076"
         cy="198.27866"
         r="41.555809"
         inkscape:export-filename="/home/baldo/projects/ffhh/ffffng/frontend/public/icon-512.png"
         inkscape:export-xdpi="591.40002"
         inkscape:export-ydpi="591.40002" />
    </g>
  </g>
</svg>
